<svg width="340" height="85" viewBox="0 0 340 85" fill="none" xmlns="http://www.w3.org/2000/svg">
<g filter="url(#filter0_di_1_951)">
<circle cx="297.207" cy="36.993" r="16.2074" fill="url(#paint0_linear_1_951)"/>
</g>
<rect x="293.684" y="27.8325" width="7.04668" height="18.3214" rx="1.057" fill="white"/>
<rect x="306.368" y="33.4697" width="7.04668" height="18.3214" rx="1.057" transform="rotate(90 306.368 33.4697)" fill="white"/>
<path d="M12.2598 47.6039H20.8173L22.0275 52.7471H32.9621L24.5774 20.3323H8.54296L0.158353 52.7471H11.0929L12.2598 47.6039ZM16.8411 30.2729L18.9157 39.349H14.1615L16.2793 30.2729H16.8411ZM34.9694 19.0358L45.3421 18.2578V45.3133C45.8896 45.4285 46.3794 45.515 46.8116 45.5726C47.2438 45.6302 47.6039 45.6735 47.8921 45.7023L47.4167 53.3089C43.0083 53.3089 40.0837 53.0496 38.6431 52.531C37.4329 52.0988 36.5109 51.5369 35.877 50.8454C35.2719 50.1539 34.9694 49.1598 34.9694 47.8633V19.0358ZM51.0079 19.0358L61.3806 18.2578V45.3133C61.9281 45.4285 62.4179 45.515 62.8501 45.5726C63.2823 45.6302 63.6425 45.6735 63.9306 45.7023L63.4552 53.3089C59.0468 53.3089 56.1223 53.0496 54.6816 52.531C53.4715 52.0988 52.5494 51.5369 51.9155 50.8454C51.3105 50.1539 51.0079 49.1598 51.0079 47.8633V19.0358ZM77.1599 43.9303V45.7455C77.6785 45.8031 78.1971 45.8463 78.7158 45.8751C79.2344 45.904 79.753 45.9184 80.2717 45.9184C83.4987 45.9184 86.7546 45.3997 90.0393 44.3625L91.2495 51.9691C87.3597 53.0064 83.5276 53.525 79.753 53.525C74.9124 53.525 71.4117 52.4013 69.2507 50.1539C67.0897 47.8777 66.0092 44.4201 66.0092 39.7812C66.0092 35.1423 67.0897 31.6991 69.2507 29.4517C71.4405 27.1755 74.9413 26.0373 79.753 26.0373C82.1733 26.0373 84.1903 26.1958 85.8038 26.5128C87.4173 26.8009 88.7139 27.3051 89.6936 28.0254C90.702 28.717 91.4079 29.6678 91.8113 30.8779C92.2435 32.0593 92.4596 33.5576 92.4596 35.3728C92.4596 36.8711 92.2003 38.1676 91.6817 39.2625C91.1918 40.3286 90.3563 41.2074 89.1749 41.8989C87.9936 42.5905 86.4233 43.1091 84.464 43.4548C82.5047 43.7718 80.07 43.9303 77.1599 43.9303ZM77.1599 35.805V37.9227H79.2776C80.5454 37.9227 81.453 37.7931 82.0005 37.5338C82.5767 37.2744 82.8649 36.6694 82.8649 35.7185V33.6008H80.7471C79.4793 33.6008 78.5573 33.7304 77.981 33.9897C77.4336 34.2491 77.1599 34.8541 77.1599 35.805ZM96.3379 52.7471V26.8153H101.524L104.377 29.711C106.451 27.8093 109.016 26.5848 112.07 26.0373L112.675 35.8482C112.272 35.8482 111.782 35.9058 111.205 36.0211C110.629 36.1363 110.039 36.2804 109.433 36.4533C108.857 36.6261 108.324 36.8422 107.834 37.1016C107.344 37.3321 106.97 37.6058 106.711 37.9227V52.7471H96.3379ZM114.412 59.7487L115.752 52.0123C118.72 53.0208 122.163 53.525 126.081 53.525C126.658 53.525 127.148 53.5106 127.551 53.4818C127.983 53.4818 128.314 53.4674 128.545 53.4386V51.6234C126.989 51.6234 125.721 51.5945 124.742 51.5369C123.762 51.4505 123.027 51.3352 122.537 51.1912C121.558 50.9318 120.938 50.6725 120.679 50.4132C120.362 50.1539 120.175 49.9522 120.117 49.8081C120.06 49.6353 120.031 49.3903 120.031 49.0734L121.587 44.6218C119.109 44.1608 117.221 43.2243 115.925 41.8125C114.628 40.3718 113.98 38.1388 113.98 35.1135C113.98 32.1169 115.003 29.8551 117.049 28.328C119.094 26.8009 122.408 26.0373 126.989 26.0373C127.825 26.0373 128.603 26.0661 129.323 26.1238C130.043 26.1526 130.735 26.2246 131.397 26.3399L135.936 22.8823L141.381 28.1119L138.399 31.5695C138.86 32.7508 139.091 34.3067 139.091 36.2372C139.091 37.5914 138.932 38.7727 138.615 39.7812C138.298 40.7896 137.765 41.6396 137.016 42.3311C136.296 43.0227 135.345 43.5701 134.164 43.9735C132.982 44.3481 131.513 44.6074 129.755 44.7514L129.539 46.0048C131.412 46.1201 132.997 46.3073 134.293 46.5667C135.59 46.7972 136.641 47.1717 137.448 47.6904C138.255 48.209 138.831 48.8717 139.177 49.6785C139.552 50.4852 139.739 51.5081 139.739 52.7471C139.739 54.8216 139.321 56.4351 138.485 57.5877C137.65 58.7402 136.555 59.5902 135.201 60.1376C133.875 60.6851 132.363 61.0164 130.663 61.1317C128.992 61.2469 127.306 61.3046 125.606 61.3046C122.177 61.3046 118.446 60.7859 114.412 59.7487ZM123.748 35.1135V38.4846H125.347C126.586 38.4846 127.493 38.3549 128.07 38.0956C128.646 37.8363 128.934 37.2456 128.934 36.3236V32.9525H127.292C126.053 32.9525 125.145 33.0821 124.569 33.3415C124.021 33.6008 123.748 34.1914 123.748 35.1135ZM164.313 32.9957H153.94V28.6305H165.091L166.387 20.3323H143.567V52.7471H166.646V44.4489H153.94V40.5159H164.313V32.9957ZM179.947 47.6039H188.504L189.715 52.7471H200.649L192.265 20.3323H176.23L167.845 52.7471H178.78L179.947 47.6039ZM184.528 30.2729L186.603 39.349H181.849L183.966 30.2729H184.528ZM225.736 20.3323H200.323V28.6305H207.843V52.7471H218.216V28.6305H225.736V20.3323ZM245.591 40.2998C246.744 40.2998 247.695 40.6744 248.444 41.4235C249.222 42.1727 249.611 43.1523 249.611 44.3625C249.611 45.5726 249.222 46.5523 248.444 47.3014C247.695 48.0505 246.744 48.4251 245.591 48.4251C244.439 48.4251 243.474 48.0361 242.696 47.2582C241.918 46.4802 241.529 45.515 241.529 44.3625C241.529 43.1523 241.918 42.1727 242.696 41.4235C243.474 40.6744 244.439 40.2998 245.591 40.2998ZM245.591 24.2221C246.744 24.2221 247.695 24.5967 248.444 25.3458C249.222 26.095 249.611 27.0746 249.611 28.2848C249.611 29.4949 249.222 30.4746 248.444 31.2237C247.695 31.9728 246.744 32.3474 245.591 32.3474C244.439 32.3474 243.474 31.9584 242.696 31.1805C241.918 30.4025 241.529 29.4373 241.529 28.2848C241.529 27.0746 241.918 26.095 242.696 25.3458C243.474 24.5967 244.439 24.2221 245.591 24.2221ZM254.782 46.2641C256.943 46.2641 258.023 45.1692 258.023 42.9794V30.1432C258.023 27.9246 256.943 26.8153 254.782 26.8153V20.3323C256.799 20.3323 258.527 20.5196 259.968 20.8942C261.409 21.24 262.576 21.845 263.469 22.7094C264.391 23.5738 265.068 24.7263 265.5 26.167C265.932 27.6077 266.149 29.4229 266.149 31.6127V41.4667C266.149 43.4837 265.961 45.2124 265.587 46.6531C265.212 48.0938 264.578 49.2607 263.685 50.1539C262.821 51.0471 261.654 51.7098 260.184 52.142C258.744 52.5454 256.943 52.7471 254.782 52.7471V46.2641Z" fill="url(#paint1_linear_1_951)"/>
<defs>
<filter id="filter0_di_1_951" x="255.338" y="0.526441" width="83.738" height="83.7379" filterUnits="userSpaceOnUse" color-interpolation-filters="sRGB">
<feFlood flood-opacity="0" result="BackgroundImageFix"/>
<feColorMatrix in="SourceAlpha" type="matrix" values="0 0 0 0 0 0 0 0 0 0 0 0 0 0 0 0 0 0 127 0" result="hardAlpha"/>
<feOffset dy="5.40245"/>
<feGaussianBlur stdDeviation="12.8308"/>
<feComposite in2="hardAlpha" operator="out"/>
<feColorMatrix type="matrix" values="0 0 0 0 0.0862745 0 0 0 0 0.470588 0 0 0 0 0.94902 0 0 0 0.2 0"/>
<feBlend mode="normal" in2="BackgroundImageFix" result="effect1_dropShadow_1_951"/>
<feBlend mode="normal" in="SourceGraphic" in2="effect1_dropShadow_1_951" result="shape"/>
<feColorMatrix in="SourceAlpha" type="matrix" values="0 0 0 0 0 0 0 0 0 0 0 0 0 0 0 0 0 0 127 0" result="hardAlpha"/>
<feOffset dy="5.40245"/>
<feGaussianBlur stdDeviation="2.70123"/>
<feComposite in2="hardAlpha" operator="arithmetic" k2="-1" k3="1"/>
<feColorMatrix type="matrix" values="0 0 0 0 0 0 0 0 0 0 0 0 0 0 0 0 0 0 0.12 0"/>
<feBlend mode="normal" in2="shape" result="effect2_innerShadow_1_951"/>
</filter>
<linearGradient id="paint0_linear_1_951" x1="278.477" y1="8.07398" x2="352.148" y2="16.0002" gradientUnits="userSpaceOnUse">
<stop stop-color="#3A8EF6"/>
<stop offset="1" stop-color="#6F3AFA"/>
</linearGradient>
<linearGradient id="paint1_linear_1_951" x1="-20.2545" y1="-8.42941" x2="461.179" y2="250.555" gradientUnits="userSpaceOnUse">
<stop stop-color="#3A8EF6"/>
<stop offset="1" stop-color="#6F3AFA"/>
</linearGradient>
</defs>
</svg>
