<svg width="88" height="47" viewBox="0 0 88 47" fill="none" xmlns="http://www.w3.org/2000/svg">
<path d="M73.3765 4.07656C71.7312 2.78417 69.7777 1.75896 67.6276 1.05949C65.4775 0.360018 63.1729 0 60.8456 0C58.5182 0 56.2136 0.360018 54.0635 1.05949C51.9134 1.75896 49.9599 2.78417 48.3146 4.07656L44.9 6.75746L41.4853 4.07656C38.1619 1.46725 33.6544 0.0013525 28.9543 0.00135252C24.2543 0.00135255 19.7468 1.46725 16.4234 4.07656C13.0999 6.68587 11.2328 10.2248 11.2328 13.915C11.2328 17.6051 13.0999 21.1441 16.4234 23.7534L19.838 26.4343L44.9 46.1111L69.9619 26.4343L73.3765 23.7534C75.0226 22.4616 76.3284 20.9278 77.2193 19.2397C78.1102 17.5516 78.5688 15.7423 78.5688 13.915C78.5688 12.0877 78.1102 10.2783 77.2193 8.5902C76.3284 6.90209 75.0226 5.36834 73.3765 4.07656Z" fill="url(#paint0_linear_308_341)"/>
<g filter="url(#filter0_b_308_341)">
<path d="M36.4838 33.6967C35.8442 33.6962 35.216 33.5627 34.6623 33.3098C34.1085 33.0569 33.6487 32.6934 33.3289 32.2557L27.1101 23.4228L23.1345 28.1346C22.7923 28.5245 22.3337 28.8416 21.7992 29.0577C21.2648 29.2739 20.671 29.3825 20.0707 29.3738H3.65756C2.69022 29.3738 1.76249 29.0702 1.07848 28.5298C0.394468 27.9893 0.0101929 27.2563 0.0101929 26.492C0.0101929 25.7276 0.394468 24.9946 1.07848 24.4542C1.76249 23.9137 2.69022 23.6101 3.65756 23.6101H18.1194L24.3381 16.2469C24.6855 15.8366 25.1605 15.5038 25.7175 15.2802C26.2745 15.0566 26.8948 14.9498 27.5191 14.9701C28.1433 14.9903 28.7505 15.1369 29.2824 15.3958C29.8143 15.6547 30.2532 16.0172 30.5569 16.4486L36.4838 25.051L46.0217 12.0826C46.3476 11.6363 46.8189 11.2673 47.3867 11.0139C47.9544 10.7604 48.5977 10.6319 49.2496 10.6416C49.8861 10.6447 50.5105 10.7793 51.0608 11.032C51.6111 11.2848 52.0681 11.647 52.3863 12.0826L61.1218 23.6101L64.7691 21.3334C65.4156 20.9369 66.2121 20.7238 67.0305 20.7282H83.8996C84.8669 20.7282 85.7946 21.0318 86.4786 21.5723C87.1627 22.1127 87.5469 22.8458 87.5469 23.6101C87.5469 24.3744 87.1627 25.1074 86.4786 25.6479C85.7946 26.1883 84.8669 26.492 83.8996 26.492H68.3071L62.3801 30.1952C61.9717 30.4606 61.4952 30.6527 60.9835 30.7582C60.4718 30.8636 59.9373 30.8799 59.4168 30.8059C58.8964 30.7319 58.4026 30.5693 57.9695 30.3295C57.5365 30.0897 57.1747 29.7784 56.9091 29.4171L49.2496 19.2008L39.6388 32.2557C39.319 32.6934 38.8591 33.0569 38.3054 33.3098C37.7516 33.5627 37.1234 33.6962 36.4838 33.6967Z" fill="white" fill-opacity="0.2"/>
</g>
<defs>
<filter id="filter0_b_308_341" x="-13.8787" y="-3.24778" width="115.315" height="50.8334" filterUnits="userSpaceOnUse" color-interpolation-filters="sRGB">
<feFlood flood-opacity="0" result="BackgroundImageFix"/>
<feGaussianBlur in="BackgroundImageFix" stdDeviation="6.94444"/>
<feComposite in2="SourceAlpha" operator="in" result="effect1_backgroundBlur_308_341"/>
<feBlend mode="normal" in="SourceGraphic" in2="effect1_backgroundBlur_308_341" result="shape"/>
</filter>
<linearGradient id="paint0_linear_308_341" x1="11.2328" y1="21.5185" x2="76.9535" y2="21.9468" gradientUnits="userSpaceOnUse">
<stop stop-color="#FF7070"/>
<stop offset="1" stop-color="#FF7070" stop-opacity="0.65"/>
</linearGradient>
</defs>
</svg>
