<svg width="267" height="44" viewBox="0 0 267 44" fill="none" xmlns="http://www.w3.org/2000/svg">
<path d="M12.4964 29.8569H21.0539L22.2641 35H33.1986L24.814 2.58527H8.77953L0.394925 35H11.3295L12.4964 29.8569ZM17.0777 12.5258L19.1522 21.6019H14.3981L16.5158 12.5258H17.0777ZM35.206 1.28869L45.5787 0.510733V27.5662C46.1261 27.6815 46.616 27.7679 47.0482 27.8255C47.4804 27.8832 47.8405 27.9264 48.1286 27.9552L47.6532 35.5619C43.2448 35.5619 40.3203 35.3025 38.8796 34.7839C37.6695 34.3517 36.7475 33.7899 36.1136 33.0983C35.5085 32.4068 35.206 31.4128 35.206 30.1162V1.28869ZM51.2445 1.28869L61.6172 0.510733V27.5662C62.1647 27.6815 62.6545 27.7679 63.0867 27.8255C63.5189 27.8832 63.879 27.9264 64.1672 27.9552L63.6918 35.5619C59.2834 35.5619 56.3588 35.3025 54.9182 34.7839C53.708 34.3517 52.786 33.7899 52.1521 33.0983C51.547 32.4068 51.2445 31.4128 51.2445 30.1162V1.28869ZM77.3964 26.1832V27.9984C77.9151 28.056 78.4337 28.0993 78.9523 28.1281C79.471 28.1569 79.9896 28.1713 80.5083 28.1713C83.7353 28.1713 86.9912 27.6527 90.2759 26.6154L91.486 34.222C87.5963 35.2593 83.7641 35.778 79.9896 35.778C75.149 35.778 71.6482 34.6542 69.4872 32.4068C67.3263 30.1306 66.2458 26.673 66.2458 22.0341C66.2458 17.3952 67.3263 13.952 69.4872 11.7046C71.677 9.42838 75.1778 8.29027 79.9896 8.29027C82.4099 8.29027 84.4268 8.44874 86.0404 8.76568C87.6539 9.05381 88.9505 9.55804 89.9301 10.2784C90.9386 10.9699 91.6445 11.9207 92.0479 13.1309C92.4801 14.3122 92.6962 15.8105 92.6962 17.6257C92.6962 19.124 92.4369 20.4206 91.9182 21.5155C91.4284 22.5816 90.5928 23.4604 89.4115 24.1519C88.2302 24.8434 86.6598 25.362 84.7006 25.7078C82.7413 26.0247 80.3066 26.1832 77.3964 26.1832ZM77.3964 18.0579V20.1757H79.5142C80.782 20.1757 81.6896 20.046 82.237 19.7867C82.8133 19.5274 83.1014 18.9223 83.1014 17.9715V15.8537H80.9837C79.7159 15.8537 78.7939 15.9834 78.2176 16.2427C77.6702 16.502 77.3964 17.1071 77.3964 18.0579ZM96.5745 35V9.06822H101.761L104.613 11.9639C106.688 10.0623 109.252 8.83772 112.306 8.29027L112.911 18.1011C112.508 18.1011 112.018 18.1587 111.442 18.274C110.866 18.3893 110.275 18.5333 109.67 18.7062C109.094 18.8791 108.561 19.0952 108.071 19.3545C107.581 19.585 107.207 19.8587 106.947 20.1757V35H96.5745ZM114.649 42.0016L115.989 34.2653C118.956 35.2737 122.399 35.778 126.318 35.778C126.894 35.778 127.384 35.7635 127.787 35.7347C128.22 35.7347 128.551 35.7203 128.782 35.6915V33.8763C127.226 33.8763 125.958 33.8475 124.978 33.7899C123.999 33.7034 123.264 33.5882 122.774 33.4441C121.794 33.1848 121.175 32.9255 120.916 32.6661C120.599 32.4068 120.411 32.2051 120.354 32.0611C120.296 31.8882 120.267 31.6433 120.267 31.3263L121.823 26.8747C119.345 26.4137 117.458 25.4773 116.161 24.0654C114.865 22.6248 114.217 20.3918 114.217 17.3664C114.217 14.3698 115.239 12.108 117.285 10.5809C119.331 9.05381 122.644 8.29027 127.226 8.29027C128.061 8.29027 128.839 8.31908 129.559 8.3767C130.28 8.40552 130.971 8.47755 131.634 8.59281L136.172 5.13523L141.618 10.3648L138.636 13.8224C139.097 15.0037 139.327 16.5596 139.327 18.4901C139.327 19.8443 139.169 21.0257 138.852 22.0341C138.535 23.0426 138.002 23.8926 137.253 24.5841C136.532 25.2756 135.581 25.823 134.4 26.2264C133.219 26.601 131.749 26.8603 129.992 27.0044L129.776 28.2577C131.648 28.373 133.233 28.5603 134.53 28.8196C135.826 29.0501 136.878 29.4247 137.685 29.9433C138.492 30.4619 139.068 31.1246 139.414 31.9314C139.788 32.7382 139.975 33.761 139.975 35C139.975 37.0745 139.558 38.6881 138.722 39.8406C137.886 40.9931 136.792 41.8431 135.437 42.3906C134.112 42.938 132.599 43.2694 130.899 43.3846C129.228 43.4999 127.543 43.5575 125.843 43.5575C122.414 43.5575 118.683 43.0389 114.649 42.0016ZM123.984 17.3664V20.7375H125.583C126.822 20.7375 127.73 20.6079 128.306 20.3485C128.882 20.0892 129.171 19.4986 129.171 18.5765V15.2054H127.528C126.289 15.2054 125.382 15.3351 124.805 15.5944C124.258 15.8537 123.984 16.4444 123.984 17.3664ZM164.549 15.2486H154.176V10.8834H165.327L166.624 2.58527H143.804V35H166.883V26.7018H154.176V22.7688H164.549V15.2486ZM180.184 29.8569H188.741L189.951 35H200.886L192.501 2.58527H176.467L168.082 35H179.017L180.184 29.8569ZM184.765 12.5258L186.839 21.6019H182.085L184.203 12.5258H184.765ZM225.972 2.58527H200.559V10.8834H208.079V35H218.452V10.8834H225.972V2.58527ZM245.828 22.5527C246.981 22.5527 247.931 22.9273 248.681 23.6765C249.459 24.4256 249.847 25.4052 249.847 26.6154C249.847 27.8255 249.459 28.8052 248.681 29.5543C247.931 30.3035 246.981 30.678 245.828 30.678C244.676 30.678 243.71 30.2891 242.932 29.5111C242.154 28.7332 241.765 27.7679 241.765 26.6154C241.765 25.4052 242.154 24.4256 242.932 23.6765C243.71 22.9273 244.676 22.5527 245.828 22.5527ZM245.828 6.47504C246.981 6.47504 247.931 6.84961 248.681 7.59875C249.459 8.34789 249.847 9.32754 249.847 10.5377C249.847 11.7478 249.459 12.7275 248.681 13.4766C247.931 14.2258 246.981 14.6003 245.828 14.6003C244.676 14.6003 243.71 14.2114 242.932 13.4334C242.154 12.6554 241.765 11.6902 241.765 10.5377C241.765 9.32754 242.154 8.34789 242.932 7.59875C243.71 6.84961 244.676 6.47504 245.828 6.47504ZM255.018 28.5171C257.179 28.5171 258.26 27.4222 258.26 25.2324V12.3961C258.26 10.1775 257.179 9.06822 255.018 9.06822V2.58527C257.035 2.58527 258.764 2.77256 260.205 3.14713C261.645 3.49289 262.812 4.09796 263.705 4.96235C264.627 5.82675 265.305 6.97927 265.737 8.41993C266.169 9.86058 266.385 11.6758 266.385 13.8656V23.7197C266.385 25.7366 266.198 27.4654 265.823 28.906C265.449 30.3467 264.815 31.5136 263.922 32.4068C263.057 33.3 261.89 33.9627 260.421 34.3949C258.98 34.7983 257.179 35 255.018 35V28.5171Z" fill="url(#paint0_linear_1_1086)"/>
<defs>
<linearGradient id="paint0_linear_1_1086" x1="-20.018" y1="-26.1765" x2="461.415" y2="232.808" gradientUnits="userSpaceOnUse">
<stop stop-color="#3A8EF6"/>
<stop offset="1" stop-color="#6F3AFA"/>
</linearGradient>
</defs>
</svg>
